<?xml version="1.0" encoding="UTF-8" standalone="no"?>
<!-- Created with Inkscape (http://www.inkscape.org/) -->

<svg
   version="1.1"
   id="svg1"
   width="20.573334"
   height="20.067078"
   viewBox="0 0 20.573334 20.067077"
   sodipodi:docname="A944eeoi_1gbhl24_2zg.pdf"
   xmlns:inkscape="http://www.inkscape.org/namespaces/inkscape"
   xmlns:sodipodi="http://sodipodi.sourceforge.net/DTD/sodipodi-0.dtd"
   xmlns="http://www.w3.org/2000/svg"
   xmlns:svg="http://www.w3.org/2000/svg">
  <defs
     id="defs1">
    <clipPath
       clipPathUnits="userSpaceOnUse"
       id="clipPath2">
      <path
         d="M 0,841.89 H 595.276 V 0 H 0 Z"
         transform="translate(-123.0134,-589.24461)"
         id="path2" />
    </clipPath>
  </defs>
  <sodipodi:namedview
     id="namedview1"
     pagecolor="#505050"
     bordercolor="#eeeeee"
     borderopacity="1"
     inkscape:showpageshadow="0"
     inkscape:pageopacity="0"
     inkscape:pagecheckerboard="0"
     inkscape:deskcolor="#505050" />
  <g
     id="g1"
     inkscape:groupmode="layer"
     inkscape:label="1"
     transform="translate(-180.34937,-362.82416)">
    <path
       id="path1"
       d="m 0,0 c -4.26,0 -7.715,-3.454 -7.715,-7.715 0,-3.409 2.21,-6.301 5.276,-7.321 0.385,-0.072 0.51,0.168 0.51,0.371 v 1.436 c -2.146,-0.467 -2.593,0.91 -2.593,0.91 -0.351,0.892 -0.857,1.129 -0.857,1.129 -0.7,0.479 0.054,0.469 0.054,0.469 0.774,-0.054 1.182,-0.795 1.182,-0.795 0.688,-1.179 1.805,-0.839 2.245,-0.641 0.069,0.498 0.269,0.839 0.49,1.031 -1.713,0.196 -3.515,0.858 -3.515,3.813 0,0.843 0.302,1.531 0.795,2.071 -0.08,0.195 -0.344,0.98 0.075,2.042 0,0 0.648,0.207 2.122,-0.791 0.616,0.171 1.275,0.257 1.931,0.26 0.656,-0.003 1.316,-0.089 1.933,-0.26 1.473,0.998 2.119,0.791 2.119,0.791 0.42,-1.063 0.156,-1.848 0.076,-2.042 0.495,-0.54 0.794,-1.228 0.794,-2.071 0,-2.963 -1.804,-3.616 -3.522,-3.807 0.276,-0.239 0.529,-0.708 0.529,-1.428 v -2.117 c 0,-0.205 0.123,-0.447 0.515,-0.371 3.063,1.022 5.271,3.913 5.271,7.321 C 7.715,-3.454 4.261,0 0,0"
       style="fill:#ada8a7;fill-opacity:1;fill-rule:nonzero;stroke:none"
       transform="matrix(1.3333333,0,0,-1.3333333,190.63603,362.82416)"
       clip-path="url(#clipPath2)" />
  </g>
</svg>
