<?xml version="1.0" encoding="UTF-8" standalone="no"?>
<!-- Created with Inkscape (http://www.inkscape.org/) -->

<svg
   version="1.1"
   id="svg1"
   width="20.448006"
   height="20.447998"
   viewBox="0 0 20.448006 20.447998"
   sodipodi:docname="A92vl64r_1gbhl26_2zg.pdf"
   xmlns:inkscape="http://www.inkscape.org/namespaces/inkscape"
   xmlns:sodipodi="http://sodipodi.sourceforge.net/DTD/sodipodi-0.dtd"
   xmlns="http://www.w3.org/2000/svg"
   xmlns:svg="http://www.w3.org/2000/svg">
  <defs
     id="defs1">
    <clipPath
       clipPathUnits="userSpaceOnUse"
       id="clipPath2">
      <path
         d="M 0,841.89 H 595.276 V 0 H 0 Z"
         transform="translate(-128.0786,-601.25522)"
         id="path2" />
    </clipPath>
  </defs>
  <sodipodi:namedview
     id="namedview1"
     pagecolor="#505050"
     bordercolor="#eeeeee"
     borderopacity="1"
     inkscape:showpageshadow="0"
     inkscape:pageopacity="0"
     inkscape:pagecheckerboard="0"
     inkscape:deskcolor="#505050" />
  <g
     id="g1"
     inkscape:groupmode="layer"
     inkscape:label="1"
     transform="translate(-97.440568,-396.94926)">
    <path
       id="path1"
       d="m 0,0 h -1.917 v 3.581 c 0,2.152 -2.556,1.989 -2.556,0 V 0 H -6.39 v 7.029 h 1.917 V 5.901 C -3.581,7.554 0,7.676 0,4.319 Z m -8.627,7.84 c -0.617,0 -1.118,0.504 -1.118,1.127 0,0.622 0.501,1.127 1.118,1.127 0.618,0 1.119,-0.505 1.119,-1.127 0,-0.623 -0.501,-1.127 -1.119,-1.127 M -7.668,0 h -1.917 v 7.029 h 1.917 z m 7.029,12.141 h -8.946 c -1.765,0 -3.195,-1.43 -3.195,-3.195 V 0 c 0,-1.764 1.43,-3.195 3.195,-3.195 h 8.946 c 1.765,0 3.195,1.431 3.195,3.195 v 8.946 c 0,1.765 -1.43,3.195 -3.195,3.195"
       style="fill:#ada8a7;fill-opacity:1;fill-rule:nonzero;stroke:none"
       transform="matrix(1.3333333,0,0,-1.3333333,114.48057,413.13725)"
       clip-path="url(#clipPath2)" />
  </g>
</svg>
