<?xml version="1.0" encoding="UTF-8" standalone="no"?>
<!-- Created with Inkscape (http://www.inkscape.org/) -->

<svg
   version="1.1"
   id="svg1"
   width="20.449219"
   height="20.449219"
   viewBox="0 0 20.449219 20.449218"
   sodipodi:docname="A91lzjhqh_1gbhl22_2zg.pdf"
   xmlns:inkscape="http://www.inkscape.org/namespaces/inkscape"
   xmlns:sodipodi="http://sodipodi.sourceforge.net/DTD/sodipodi-0.dtd"
   xmlns="http://www.w3.org/2000/svg"
   xmlns:svg="http://www.w3.org/2000/svg">
  <defs
     id="defs1">
    <clipPath
       clipPathUnits="userSpaceOnUse"
       id="clipPath2">
      <path
         d="M 0,841.89 H 595.276 V 0 H 0 Z"
         transform="translate(-19.065501,-550.83031)"
         id="path2" />
    </clipPath>
  </defs>
  <sodipodi:namedview
     id="namedview1"
     pagecolor="#505050"
     bordercolor="#eeeeee"
     borderopacity="1"
     inkscape:showpageshadow="0"
     inkscape:pageopacity="0"
     inkscape:pagecheckerboard="0"
     inkscape:deskcolor="#505050" />
  <g
     id="g1"
     inkscape:groupmode="layer"
     inkscape:label="1"
     transform="translate(-5.9733692,-365.3556)">
    <path
       id="path1"
       clip-path="url(#clipPath2)"
       style="fill:#ada9a8;fill-opacity:1;fill-rule:nonzero;stroke:none"
       d="m -7.8609106,15.336556 c -2.0639979,0 -3.7382814,-1.674284 -3.7382814,-3.738281 V 3.7379227 c 0,-2.0639979 1.6742835,-3.73828129376 3.7382814,-3.73828129376 H -5.5884376e-4 C 2.0634391,-3.5859376e-4 3.7377225,1.6739248 3.7377225,3.7379227 v 7.8603523 c 0,2.063997 -1.6742834,3.738281 -3.73828134376,3.738281 z m 3.9404298,-2.129883 c 0.6659993,0 1.3227077,-0.109379 1.9497071,-0.338379 2.28699768,-0.814999 3.8188477,-3.0041783 3.8188477,-5.4301758 0,-3.1819969 -2.586558,-5.76709 -5.7685548,-5.76709 -3.1819968,0 -5.76709,2.5850931 -5.76709,5.76709 0,3.1819968 2.5850932,5.7685548 5.76709,5.7685548 z m 0,-0.597656 c -2.6049974,0 -4.7633482,-1.928085 -5.1313478,-4.4340824 l 0.6870117,0.019043 c 0.2089998,-0.03 0.3769727,-0.1090665 0.3969727,-0.2680664 0.089,-0.5869994 -0.4971248,-0.7558911 -0.328125,-1.2128906 0.1499998,-0.4079996 0.6961214,-0.5577849 0.9741211,-0.2797852 0.2779997,0.2889997 0.607504,0.846067 0.6665039,1.3930665 0.1099999,0.9049991 1.242938,1.3615811 1.7109376,0.496582 C -4.7954068,8.0638841 -4.8849225,7.6177194 -5.1729223,7.3297197 -5.460922,7.04072 -5.9394847,6.763149 -5.8994848,6.3951494 -5.8594848,6.0671497 -4.5666609,6.0062885 -4.9546605,4.51429 -5.0946604,3.9872905 -5.6006329,3.5699069 -5.3516332,3.3219071 l 0.2490234,-0.2490234 v -0.666504 c 0.3769997,-0.089 0.7741294,-0.1391601 1.182129,-0.1391601 2.8539971,0 5.1708986,2.3169014 5.1708986,5.1708986 0,0.3979996 -0.05016,0.7955941 -0.1391602,1.1835937 L 0.38615992,8.790169 h -0.50683595 c -0.29899971,0 -0.57685958,0.1311408 -0.7558594,0.3691406 -0.26899977,0.3479997 -0.49746107,0.815918 -0.64746097,0.815918 -0.2279998,0 -0.5963055,-1.5424805 -1.3623047,-1.5424805 -0.6059994,0 -1.1045272,1.2822779 -0.9155274,1.7592769 0.2289998,0.627 0.7772194,0.498817 1.3242188,0.736817 0.2479998,0.11 0.4072266,0.357953 0.4072266,0.626953 l -0.020508,0.725098 c -0.02,0.01 -0.049102,0.02076 -0.079102,0.03076 -0.5669994,0.198 -1.1534889,0.297364 -1.7504883,0.297364 z m 3.42919929,-5.7612309 c 0.43599956,0.024 0.58461329,-0.2726369 0.57861329,-0.4526367 0,-0.2989997 -0.53730554,-1.1046762 -1.36230468,-1.4926758 -0.4869996,-0.2289998 -1.9489217,0.9552621 -1.669922,1.3432617 0.2879998,0.3969996 0.9535434,-0.1403474 1.331543,0.1186524 0.4959996,0.3389996 0.86107065,0.4693984 1.12207039,0.4833984 z"
       transform="matrix(1.3333333,0,0,-1.3333333,21.438958,385.80434)" />
  </g>
</svg>
