<?xml version="1.0" encoding="UTF-8" standalone="no"?>
<!-- Created with Inkscape (http://www.inkscape.org/) -->

<svg
   version="1.1"
   id="svg1"
   width="75.533112"
   height="29.541748"
   viewBox="0 0 75.533111 29.541748"
   sodipodi:docname="A91mhrfvx_d7lkgf_l34.pdf"
   xmlns:inkscape="http://www.inkscape.org/namespaces/inkscape"
   xmlns:sodipodi="http://sodipodi.sourceforge.net/DTD/sodipodi-0.dtd"
   xmlns="http://www.w3.org/2000/svg"
   xmlns:svg="http://www.w3.org/2000/svg">
  <defs
     id="defs1">
    <clipPath
       clipPathUnits="userSpaceOnUse"
       id="clipPath2">
      <path
         d="M 0,841.89 H 595.276 V 0 H 0 Z"
         transform="translate(-214.77081,-543.90691)"
         id="path2" />
    </clipPath>
    <clipPath
       clipPathUnits="userSpaceOnUse"
       id="clipPath4">
      <path
         d="M 0,841.89 H 595.276 V 0 H 0 Z"
         transform="translate(-215.41171,-542.95961)"
         id="path4" />
    </clipPath>
    <clipPath
       clipPathUnits="userSpaceOnUse"
       id="clipPath6">
      <path
         d="M 0,841.89 H 595.276 V 0 H 0 Z"
         transform="translate(-228.4876,-548.98561)"
         id="path6" />
    </clipPath>
  </defs>
  <sodipodi:namedview
     id="namedview1"
     pagecolor="#505050"
     bordercolor="#eeeeee"
     borderopacity="1"
     inkscape:showpageshadow="0"
     inkscape:pageopacity="0"
     inkscape:pagecheckerboard="0"
     inkscape:deskcolor="#505050" />
  <g
     id="g1"
     inkscape:groupmode="layer"
     inkscape:label="1"
     transform="translate(-285.76901,-369.17213)">
    <path
       id="path1"
       d="M 0,0 C 0,0.272 0.101,0.534 0.283,0.734 L 0.882,1.337 C 1.168,1.628 1.474,1.94 1.926,2.393 2.433,2.902 3.121,3.591 4.163,4.634 l 0.003,0.003 1.014,1.019 0.021,0.02 c 1.685,1.689 4.083,4.096 7.604,7.63 L 5.073,21.104 0.694,16.686 c -1.307,-1.318 -1.13,-2.181 -1.13,-3.953 V 0.613 c 0,-0.34 0.104,-0.672 0.296,-0.95 0.192,-0.279 0.465,-0.492 0.781,-0.61 C 0.452,-0.872 0.29,-0.742 0.176,-0.573 0.061,-0.404 0,-0.204 0,0"
       style="fill:#393536;fill-opacity:1;fill-rule:nonzero;stroke:none"
       transform="matrix(1.3333333,0,0,-1.3333333,286.36107,397.3108)"
       clip-path="url(#clipPath2)"
       inkscape:export-filename="rostelecom_logo.svg"
       inkscape:export-xdpi="96"
       inkscape:export-ydpi="96" />
    <path
       id="path3"
       d="M 0,0 C 0.013,-0.005 0.026,-0.011 0.04,-0.016 0.053,-0.021 0.065,-0.024 0.083,-0.028 0.241,-0.078 0.405,-0.104 0.57,-0.105 H 9.156 L 3.525,5.586 3.522,5.583 C 2.481,4.539 1.792,3.853 1.285,3.341 0.835,2.888 0.527,2.577 0.242,2.286 L -0.357,1.683 C -0.54,1.482 -0.641,1.22 -0.64,0.948 -0.64,0.744 -0.579,0.544 -0.465,0.375 -0.351,0.206 -0.189,0.075 0,0"
       style="fill:#393536;fill-opacity:1;fill-rule:nonzero;stroke:none"
       transform="matrix(1.3333333,0,0,-1.3333333,287.2156,398.57387)"
       clip-path="url(#clipPath4)" />
    <path
       id="path5"
       d="M 0,0 1.4,-2.475 H 2.706 L 1.244,0.11 C 2.066,0.408 2.628,0.964 2.628,1.905 2.628,2.959 1.807,3.63 0.475,3.63 H -2.11 v -6.1 h 1.142 v 2.475 z m -0.968,1.01 v 1.609 h 1.443 c 0.7,0 1.012,-0.313 1.012,-0.801 0,-0.488 -0.312,-0.802 -1.012,-0.802 z m 8.48,-1.324 c 0,1.517 -1.167,2.283 -2.343,2.283 -1.176,0 -2.342,-0.766 -2.342,-2.283 0,-1.516 1.167,-2.283 2.342,-2.283 1.175,0 2.343,0.767 2.343,2.283 M 5.169,-1.566 c -0.64,0 -1.236,0.462 -1.236,1.252 0,0.791 0.596,1.253 1.236,1.253 0.64,0 1.236,-0.462 1.236,-1.253 0,-0.79 -0.596,-1.252 -1.236,-1.252 m 3.817,2.321 c 0,0.235 0.259,0.366 0.614,0.366 0.414,0 0.7,-0.183 0.908,-0.497 l 0.71,0.497 c -0.303,0.531 -0.77,0.853 -1.634,0.853 -0.839,0 -1.565,-0.444 -1.565,-1.252 0,-0.785 0.623,-1.186 1.461,-1.351 0.614,-0.122 0.899,-0.288 0.899,-0.557 0,-0.332 -0.302,-0.478 -0.674,-0.478 -0.502,0 -0.804,0.299 -1.012,0.637 L 7.82,-1.585 c 0.296,-0.54 0.856,-1.002 1.867,-1.002 1.066,0 1.695,0.627 1.695,1.438 0,0.723 -0.414,1.123 -1.42,1.333 C 9.287,0.323 8.985,0.482 8.985,0.759 Z m 2.722,1.098 V 0.964 h 0.663 v -2.178 c 0,-1.063 0.631,-1.377 1.375,-1.377 0.247,0 0.492,0.041 0.726,0.119 l -0.101,0.906 c -0.118,-0.036 -0.24,-0.054 -0.363,-0.052 -0.329,0 -0.545,0.165 -0.545,0.609 V 0.96 h 0.934 V 1.849 H 13.46 V 3.02 H 12.371 V 1.853 Z m 4.125,-2.423 h 3.302 v 0.384 c 0,1.263 -0.865,2.16 -2.092,2.16 -1.243,0 -2.256,-0.915 -2.256,-2.282 0,-1.368 1.011,-2.283 2.204,-2.283 0.942,0 1.539,0.358 1.971,1.097 l -0.863,0.436 c -0.268,-0.34 -0.51,-0.593 -1.089,-0.593 -0.64,0 -1.107,0.418 -1.175,1.081 z m 1.175,1.706 c 0.606,0 1.011,-0.331 1.116,-0.871 h -2.273 c 0.155,0.488 0.587,0.871 1.158,0.871 z m 2.742,-3.607 h 1.09 v 6.102 h -1.09 z m 2.807,1.909 h 3.302 v 0.383 c 0,1.263 -0.864,2.161 -2.092,2.161 -1.242,0 -2.256,-0.915 -2.256,-2.283 0,-1.369 1.011,-2.283 2.204,-2.283 0.943,0 1.539,0.358 1.971,1.097 l -0.864,0.437 c -0.268,-0.341 -0.51,-0.593 -1.089,-0.593 -0.64,0 -1.107,0.417 -1.176,1.081 m 1.176,1.707 c 0.605,0 1.011,-0.331 1.115,-0.871 h -2.274 c 0.156,0.488 0.588,0.871 1.159,0.871 m 6.881,-2.572 -0.899,0.496 c -0.259,-0.366 -0.536,-0.628 -1.072,-0.628 -0.657,0 -1.141,0.478 -1.141,1.253 0,0.775 0.501,1.253 1.141,1.253 0.389,0 0.726,-0.183 0.994,-0.593 l 0.934,0.54 c -0.312,0.671 -0.986,1.08 -1.92,1.08 -1.219,0 -2.256,-0.906 -2.256,-2.282 0,-1.377 0.986,-2.283 2.256,-2.283 0.917,0 1.531,0.417 1.963,1.159 z m 5.057,1.123 c 0,1.517 -1.167,2.283 -2.343,2.283 -1.176,0 -2.343,-0.766 -2.343,-2.283 0,-1.516 1.167,-2.282 2.343,-2.282 1.176,0 2.343,0.766 2.343,2.282 m -2.343,-1.252 c -0.64,0 -1.236,0.462 -1.236,1.252 0,0.791 0.596,1.253 1.236,1.253 0.64,0 1.236,-0.462 1.236,-1.253 0,-0.79 -0.596,-1.252 -1.236,-1.252 m 9.161,-0.905 v 3.022 c 0,0.855 -0.492,1.421 -1.383,1.421 -0.527,0 -1.054,-0.235 -1.365,-0.741 -0.182,0.462 -0.562,0.741 -1.193,0.741 -0.249,0 -0.494,-0.064 -0.712,-0.186 -0.217,-0.122 -0.4,-0.298 -0.531,-0.511 V 1.86 h -1.091 v -4.321 h 1.089 v 2.421 c 0,0.697 0.389,1.063 0.813,1.063 0.473,0 0.691,-0.305 0.691,-0.827 v -2.657 h 1.089 v 2.404 c 0,0.716 0.346,1.08 0.829,1.08 0.483,0 0.674,-0.305 0.674,-0.81 v -2.674 z"
       style="fill:#393536;fill-opacity:1;fill-rule:nonzero;stroke:none"
       transform="matrix(1.3333333,0,0,-1.3333333,304.65013,390.5392)"
       clip-path="url(#clipPath6)" />
  </g>
</svg>
