<?xml version="1.0" encoding="UTF-8" standalone="no"?>
<!-- Generator: Adobe Illustrator 27.2.0, SVG Export Plug-In . SVG Version: 6.00 Build 0)  -->

<svg
   version="1.1"
   id="Layer_1"
   x="0px"
   y="0px"
   viewBox="0 0 512 512"
   style="enable-background:new 0 0 512 512;"
   xml:space="preserve"
   sodipodi:docname="catboost-logo.svg"
   inkscape:version="1.3 (0e150ed6c4, 2023-07-21)"
   xmlns:inkscape="http://www.inkscape.org/namespaces/inkscape"
   xmlns:sodipodi="http://sodipodi.sourceforge.net/DTD/sodipodi-0.dtd"
   xmlns="http://www.w3.org/2000/svg"
   xmlns:svg="http://www.w3.org/2000/svg"><defs
   id="defs4" /><sodipodi:namedview
   id="namedview4"
   pagecolor="#505050"
   bordercolor="#eeeeee"
   borderopacity="1"
   inkscape:showpageshadow="0"
   inkscape:pageopacity="0"
   inkscape:pagecheckerboard="0"
   inkscape:deskcolor="#505050"
   inkscape:zoom="2.3847656"
   inkscape:cx="255.79034"
   inkscape:cy="256"
   inkscape:window-width="2498"
   inkscape:window-height="1417"
   inkscape:window-x="54"
   inkscape:window-y="-8"
   inkscape:window-maximized="1"
   inkscape:current-layer="g4" />&#10;<style
   type="text/css"
   id="style1">&#10;	.st0{fill:#FFCC00;}&#10;	.st1{fill-rule:evenodd;clip-rule:evenodd;fill:#FFFFFF;}&#10;	.st2{fill-rule:evenodd;clip-rule:evenodd;fill:#FF0000;}&#10;</style>&#10;<g
   id="g4">&#10;	<polygon
   class="st0"
   points="381.92,484.13 0,484.13 0,27.87 380.58,27.87 512,256  "
   id="polygon1"
   style="fill:#ffc13b;fill-opacity:1" />&#10;	<path
   class="st1"
   d="M355.68,191.3c-18.39,0-33.3,14.91-33.3,33.3c0,6.89,2.09,13.3,5.68,18.61l-53.28,51.71   c2.88,2.67,5.52,5.58,7.91,8.7l53.54-51.97c5.47,3.94,12.18,6.26,19.44,6.26c18.39,0,33.3-14.91,33.3-33.3   S374.07,191.3,355.68,191.3"
   id="path1"
   style="fill:#f5f6f6;fill-opacity:1" />&#10;	<path
   class="st1"
   d="M179.47,204.19l21.25,78.32c3.57-1.58,7.3-2.82,11.16-3.78l-21.06-77.6c17.81-7.23,30.37-24.69,30.37-45.09   c0-26.86-21.77-48.63-48.63-48.63s-48.64,21.77-48.64,48.63c0,26.86,21.78,48.64,48.64,48.64   C174.89,204.68,177.21,204.51,179.47,204.19"
   id="path2"
   style="fill:#f5f6f6;fill-opacity:1" />&#10;	<path
   class="st1"
   d="M181.92,294.92l-53.28-51.71c3.59-5.31,5.68-11.72,5.68-18.61c0-18.4-14.91-33.3-33.3-33.3   s-33.3,14.9-33.3,33.3c0,18.39,14.91,33.3,33.3,33.3c7.26,0,13.97-2.32,19.44-6.26l53.54,51.97   C176.4,300.49,179.04,297.6,181.92,294.92"
   id="path3"
   style="fill:#f5f6f6;fill-opacity:1" />&#10;	<path
   class="st2"
   d="M284.16,204.68c26.86,0,48.64-21.77,48.64-48.64c0-26.86-21.78-48.63-48.64-48.63s-48.64,21.77-48.64,48.63   c0,20.41,12.57,37.87,30.37,45.09l-20.25,74.64c-5.55-1.39-11.32-2.2-17.29-2.2c-39.49,0-71.51,32.02-71.51,71.51   s32.02,71.5,71.51,71.5c39.49,0,71.5-32.01,71.5-71.5c0-29.37-17.72-54.58-43.05-65.59l20.43-75.31   C279.5,204.52,281.81,204.68,284.16,204.68"
   id="path4"
   style="fill:#2c2e35;fill-opacity:1" />&#10;</g>&#10;</svg>
