<?xml version="1.0" encoding="UTF-8" standalone="no"?>
<!-- Created with Inkscape (http://www.inkscape.org/) -->

<svg
   width="47.742401mm"
   height="96.801147mm"
   viewBox="0 0 47.742401 96.801147"
   version="1.1"
   id="svg1"
   xmlns:inkscape="http://www.inkscape.org/namespaces/inkscape"
   xmlns:sodipodi="http://sodipodi.sourceforge.net/DTD/sodipodi-0.dtd"
   xmlns="http://www.w3.org/2000/svg"
   xmlns:svg="http://www.w3.org/2000/svg">
  <sodipodi:namedview
     id="namedview1"
     pagecolor="#505050"
     bordercolor="#eeeeee"
     borderopacity="1"
     inkscape:showpageshadow="0"
     inkscape:pageopacity="0"
     inkscape:pagecheckerboard="0"
     inkscape:deskcolor="#505050"
     inkscape:document-units="mm" />
  <defs
     id="defs1" />
  <g
     inkscape:label="Слой 1"
     inkscape:groupmode="layer"
     id="layer1"
     transform="translate(-91.718996,-72.739965)">
    <path
       d="m 119.723,166.81727 -2.6745,-2.72372 -0.0216,-17.85358 -0.0216,-17.85359 -0.17461,-0.025 c -0.1687,-0.0242 -4.98377,2.38922 -18.518806,9.28196 -3.455356,1.75961 -6.302408,3.17958 -6.326631,3.15535 -0.02422,-0.0242 0.04254,-0.43891 0.148417,-0.92148 1.819653,-8.29928 6.458321,-17.53296 12.22877,-24.34224 4.88167,-5.76044 10.69757,-10.4823 17.41459,-14.13863 l 0.66334,-0.36111 v 18.23233 l 0.21432,0.0538 c 0.55344,0.13891 2.81735,-1.27738 4.11108,-2.57196 1.36083,-1.3616 2.25022,-2.80699 2.86631,-4.65792 1.12494,-3.38021 0.62089,-7.20378 -1.34037,-10.1663 -0.69048,-1.04311 -1.48041,-1.90237 -7.34467,-7.9896 -6.40315,-6.646402 -7.08669,-7.386431 -7.84281,-8.490315 -0.57997,-0.846508 -0.94999,-1.621884 -1.21746,-2.551072 -0.27202,-0.944854 -0.26688,-2.920921 0.01,-3.894446 0.53914,-1.895524 1.79786,-3.64272 3.38192,-4.694048 1.02317,-0.679172 2.70642,-1.318287 3.56149,-1.352352 l 0.30488,-0.01215 -0.34237,-0.05649 c -0.5953,-0.09826 1.0206,-0.20217 1.66905,-0.107334 0.48787,0.07138 0.51414,0.08397 0.21398,0.102457 -0.31199,0.01908 -0.29675,0.02749 0.17118,0.09423 2.4131,0.344424 4.77073,1.895951 6.54301,4.305885 0.80953,1.100888 7.97796,12.730723 11.58747,18.799209 0.54975,0.924397 0.61959,1.181174 0.21851,0.803966 -0.50756,-0.477348 -11.43529,-11.900222 -14.04165,-14.677858 -2.99196,-3.188653 -3.3298,-3.50868 -4.09336,-3.877925 -0.49875,-0.241284 -0.63612,-0.26893 -1.32668,-0.267386 -0.95726,0.0018 -1.40748,0.195746 -2.10985,0.907274 -0.65889,0.66779 -0.87321,1.233299 -0.82322,2.172326 0.0407,0.762973 0.2501,1.275669 0.78017,1.910163 0.16494,0.197465 2.93213,3.103058 6.14929,6.456986 3.21715,3.353847 6.25079,6.521612 6.74123,7.039446 2.36166,2.49287 3.8246,5.241834 4.50814,8.470794 0.29872,1.41125 0.38123,4.21645 0.16759,5.69471 -0.44097,3.05059 -1.73135,6.00472 -3.64537,8.34523 -0.73309,0.89658 -2.25398,2.32238 -3.16888,2.97091 -1.08822,0.77127 -1.56522,1.04782 -3.8816,2.25022 l -1.97855,1.0271 -0.0428,22.11805 -0.0428,22.11795 z m -13.72214,-38.74989 c 5.80418,-2.97578 9.67055,-4.97521 10.24624,-5.29875 0.81689,-0.45903 0.75484,0.0288 0.78274,-6.15117 0.0135,-2.98931 0.003,-5.52181 -0.023,-5.62769 -0.0846,-0.34236 -0.42557,-0.24136 -1.1424,0.33895 -6.06677,4.9106 -10.64082,10.52749 -14.42339,17.71202 -0.6636,1.26026 -0.73216,1.61846 -0.28246,1.47569 0.0944,-0.03 2.27333,-1.13204 4.84221,-2.44905 z m -14.281395,12.97954 c 0.0041,-0.0997 0.02439,-0.11999 0.0517,-0.0517 0.02474,0.0617 0.02166,0.13558 -0.0068,0.164 -0.02841,0.0284 -0.04862,-0.0221 -0.04493,-0.1123 z"
       fill="#c62b47"
       id="path19"
       style="fill:#ffc13b;fill-opacity:1;stroke:none;stroke-width:0.085592" />
  </g>
</svg>
